#!OML:ASF E:\Steps\Project 1\Capture day 1\Session 2\Subject.ASF
:FULLY-SPECIFIED
:DEGREES
156
root 16.7771 18.0623 21.0597 -154.036 -6.67497 173.886
lowerback -28.065 -1.80486 -9.28724
upperback 0.889641 0.468364 -0.468939
thorax 15.8909 -0.65517 4.70907
lowerneck -4.04305 0.989125 -1.35365
upperneck 21.267 -0.979115 5.32661
head 7.17906 -0.672279 1.8216
rclavicle -1.97791e-014 1.45113e-014
rhumerus -38.0448 -17.7985 -75.2373
rradius 33.6403
rwrist -1.50631
rhand -5.12186 -53.7819
rfingers 7.12502
rthumb 20.6763 277.299
lclavicle -1.97791e-014 1.45113e-014
lhumerus -30.4374 1.02301 82.2756
lradius 29.9041
lwrist -3.09631
lhand -21.3917 -12.7732
lfingers 7.12502
lthumb 4.99616 17.1479
rfemur -22.4697 2.89778 16.9536
rtibia 5.59925
rfoot -17.018 -6.19824
rtoes -11.0528
lfemur -35.7607 -12.7898 -23.7589
ltibia 28.7922
lfoot -12.078 -2.20013
ltoes -33.4316
157
root 16.7765 18.0671 21.0626 -153.936 -6.80497 173.681
lowerback -27.951 -1.8998 -9.56424
upperback 0.868371 0.416901 -0.452063
thorax 15.8123 -0.696683 4.85687
lowerneck -4.09913 0.814255 -1.40523
upperneck 21.3611 -1.24803 5.38326
head 7.23028 -0.803188 1.82947
rclavicle -3.57812e-015 -1.0138e-014
rhumerus -38.0506 -17.643 -75.207
rradius 33.5728
rwrist -1.5039
rhand -5.06297 -55.1733
rfingers 7.12502
rthumb 20.7329 275.914
lclavicle -3.57812e-015 -1.0138e-014
lhumerus -30.5942 1.32342 82.1636
lradius 29.8419
lwrist -3.36523
lhand -21.4305 -12.9872
lfingers 7.12502
lthumb 4.95864 16.9348
rfemur -22.537 3.17269 16.6448
rtibia 5.59731
rfoot -16.9818 -6.70625
rtoes -10.5555
lfemur -36.403 -12.6939 -23.8585
ltibia 29.7228
lfoot -12.4885 -1.69646
ltoes -33.5282
158
root 16.7753 18.0722 21.0624 -154.017 -7.00985 173.573
lowerback -27.7112 -1.93015 -9.70681
upperback 0.8936 0.406156 -0.460693
thorax 15.7254 -0.706133 4.92251
lowerneck -4.16249 0.702787 -1.30903
upperneck 21.437 -1.4281 5.38438
head 7.27354 -0.882604 1.80039
rclavicle -3.46382e-014 4.33351e-014
rhumerus -38.0208 -17.7853 -75.0906
rradius 33.2271
rwrist -1.35123
rhand -5.1428 -52.0991
rfingers 7.12502
rthumb 20.6562 278.98
lclavicle -3.46382e-014 4.33351e-014
lhumerus -30.6723 1.39522 82.0321
lradius 29.7626
lwrist -3.48635
lhand -21.3089 -13.2756
lfingers 7.12502
lthumb 5.07609 16.6436
rfemur -22.3494 3.83423 16.4089
rtibia 5.52052
rfoot -17.0014 -7.62702
rtoes -9.57779
lfemur -36.8141 -12.6017 -23.8178
ltibia 30.5691
lfoot -12.9046 -1.46536
ltoes -32.7425
159
root 16.772 18.0747 21.061 -154.074 -7.13909 173.464
lowerback -27.5816 -1.91513 -9.84623
upperback 0.966273 0.473391 -0.479448
thorax 15.7362 -0.686291 5.00582
lowerneck -4.09536 0.753196 -1.24071
upperneck 21.4661 -1.35747 5.32031
head 7.26808 -0.850377 1.77325
rclavicle -2.68359e-015 0
rhumerus -38.0441 -17.753 -75.0393
rradius 33.1939
rwrist -1.31741
rhand -4.98395 -55.8183
rfingers 7.12502
rthumb 20.8088 275.278
lclavicle -2.68359e-015 0
lhumerus -30.6568 1.2726 82.0339
lradius 29.7304
lwrist -3.52398
lhand -21.0719 -13.0585
lfingers 7.12502
lthumb 5.30492 16.8551
rfemur -22.1883 4.0837 16.2547
rtibia 5.47114
rfoot -17.0779 -8.07594
rtoes -9.20856
lfemur -37.2191 -12.6277 -23.717
ltibia 31.381
lfoot -13.2883 -1.23912
ltoes -29.3198
160
root 16.7678 18.075 21.0607 -154.043 -7.21512 173.399
lowerback -27.5557 -1.98136 -9.94252
upperback 1.03782 0.416628 -0.395855
thorax 15.8171 -0.724911 5.13074
lowerneck -3.86939 1.04354 -1.50807
upperneck 21.4044 -0.906235 5.29266
head 7.18946 -0.659615 1.84245
rclavicle -3.47873e-015 7.35503e-015
rhumerus -37.96 -17.3515 -75.0034
rradius 33.2766
rwrist -1.43086
rhand -5.23046 -52.3303
rfingers 7.12502
rthumb 20.572 278.74
lclavicle -3.47873e-015 7.35503e-015
lhumerus -30.7338 1.37391 82.1252
lradius 29.7548
lwrist -3.22501
lhand -20.2332 -14.5367
lfingers 7.12502
lthumb 6.11469 15.3551
rfemur -22.1293 3.94818 16.2056
rtibia 5.3781
rfoot -17.0385 -8.09289
rtoes -9.91213
lfemur -37.789 -12.61 -23.5577
ltibia 32.2837
lfoot -13.8846 -0.565197
ltoes -31.9036
161
root 16.7632 18.0766 21.0556 -154.048 -7.29933 173.306
lowerback -27.5252 -1.92692 -10.0675
upperback 1.08863 0.543353 -0.470307
thorax 15.8399 -0.678192 5.16583
lowerneck -3.72719 1.06988 -1.34192
upperneck 21.6444 -0.952896 5.31534
head 7.24472 -0.683161 1.81831
rclavicle -4.29872e-014 1.51076e-014
rhumerus -38.0368 -17.6384 -74.9116
rradius 33.2113
rwrist -1.44949
rhand -4.85701 -53.5149
rfingers 7.12502
rthumb 20.9308 277.594
lclavicle -4.29872e-014 1.51076e-014
lhumerus -30.8023 0.915188 82.1131
lradius 29.6702
lwrist -2.7303
lhand -19.7557 -16.1567
lfingers 7.12502
lthumb 6.57567 13.7212
rfemur -22.0138 3.63229 16.1648
rtibia 5.26901
rfoot -16.9274 -7.96406
rtoes -10.3818
lfemur -38.2848 -12.5887 -23.3878
ltibia 33.1024
lfoot -14.1369 -0.139553
ltoes -30.3618
162
root 16.7583 18.0798 21.0474 -154.107 -7.45377 173.244
lowerback -27.4335 -1.96081 -10.1782
upperback 1.17229 0.537998 -0.461783
thorax 15.8942 -0.69172 5.23564
lowerneck -3.88003 0.935571 -1.18954
upperneck 21.8617 -1.16264 5.1869
head 7.35129 -0.783724 1.73613
rclavicle 6.95746e-015 1.59028e-015
rhumerus -37.9761 -17.7131 -74.8676
rradius 33.1734
rwrist -1.43395
rhand -4.81587 -51.918
rfingers 7.12502
rthumb 20.9703 279.196
lclavicle 6.95746e-015 1.59028e-015
lhumerus -30.7864 0.961875 82.0287
lradius 29.4842
lwrist -2.68162
lhand -20.947 -14.578
lfingers 7.12502
lthumb 5.42557 15.3326
rfemur -21.8364 3.39414 16.1632
rtibia 5.21289
rfoot -16.9258 -7.95379
rtoes -11.4555
lfemur -38.6341 -12.5661 -23.1422
ltibia 33.7676
lfoot -14.2142 0.368931
ltoes -30.2881
163
root 16.7526 18.0834 21.0435 -154.059 -7.52709 173.143
lowerback -27.3889 -2.00913 -10.3321
upperback 1.22099 0.525816 -0.453749
thorax 15.9297 -0.711743 5.32404
lowerneck -4.11195 0.771826 -1.0908
upperneck 22.0891 -1.40346 5.05739
head 7.47619 -0.90028 1.65979
rclavicle -1.87852e-014 2.46493e-014
rhumerus -37.9046 -17.5116 -74.9436
rradius 33.314
rwrist -1.50171
rhand -4.83293 -54.1706
rfingers 7.12502
rthumb 20.9539 276.941
lclavicle -1.87852e-014 2.46493e-014
lhumerus -30.7824 1.21895 81.8841
lradius 29.3148
lwrist -2.9284
lhand -21.7094 -13.0589
lfingers 7.12502
lthumb 4.68942 16.8692
rfemur -21.8775 3.38051 16.0175
rtibia 5.29892
rfoot -17.0504 -8.05552
rtoes -11.7477
lfemur -39.0841 -12.5184 -22.9201
ltibia 34.3498
lfoot -14.3891 0.890465
ltoes -31.6123
164
root 16.7472 18.0862 21.0431 -153.902 -7.53018 172.996
lowerback -27.3433 -2.06519 -10.5474
upperback 1.17237 0.508128 -0.463855
thorax 15.8468 -0.732929 5.42011
lowerneck -4.14225 0.726138 -1.11675
upperneck 22.3079 -1.52509 5.12704
head 7.55865 -0.963275 1.67797
rclavicle -2.68359e-015 9.14409e-015
rhumerus -37.8729 -17.516 -74.8843
rradius 33.2088
rwrist -1.30023
rhand -5.24241 -54.7482
rfingers 7.12502
rthumb 20.5605 276.321
lclavicle -2.68359e-015 9.14409e-015
lhumerus -30.9818 1.42286 81.7267
lradius 29.3003
lwrist -3.1938
lhand -21.5462 -12.8086
lfingers 7.12502
lthumb 4.84694 17.116
rfemur -22.0769 3.37951 15.7949
rtibia 5.41582
rfoot -17.1379 -8.12525
rtoes -11.3147
lfemur -39.6867 -12.525 -22.6942
ltibia 34.8407
lfoot -14.4559 1.38992
ltoes -31.065
165
root 16.7419 18.0885 21.0416 -153.724 -7.50799 172.919
lowerback -27.3619 -2.1247 -10.666
upperback 1.09779 0.454854 -0.452892
thorax 15.7726 -0.763051 5.47286
lowerneck -4.04352 0.738085 -1.32119
upperneck 22.4927 -1.58431 5.34791
head 7.60539 -1.00388 1.78087
rclavicle -3.47873e-015 -5.02925e-014
rhumerus -37.8852 -17.5764 -74.7597
rradius 33.054
rwrist -1.03963
rhand -5.44143 -53.9974
rfingers 7.12502
rthumb 20.3692 277.051
lclavicle -3.47873e-015 -5.02925e-014
lhumerus -31.2882 1.74567 81.5261
lradius 29.3441
lwrist -3.54787
lhand -21.3974 -12.2814
lfingers 7.12502
lthumb 4.99061 17.6398
rfemur -22.2285 3.42804 15.6482
rtibia 5.35725
rfoot -17.0622 -8.19543
rtoes -10.6396
lfemur -40.3089 -12.4663 -22.3758
ltibia 35.2848
lfoot -14.4938 1.87238
ltoes -29.792
166
root 16.7376 18.0924 21.0383 -153.551 -7.46391 172.829
lowerback -27.4736 -2.15246 -10.7668
upperback 1.11242 0.469448 -0.496983
thorax 15.8395 -0.768647 5.4823
lowerneck -4.11336 0.747517 -1.35071
upperneck 22.5121 -1.5859 5.43389
head 7.62502 -0.997674 1.81432
rclavicle -2.93207e-015 -1.21259e-014
rhumerus -37.8655 -17.5131 -74.7888
rradius 33.1014
rwrist -1.15057
rhand -5.09355 -51.3855
rfingers 7.12502
rthumb 20.7035 279.699
lclavicle -2.93207e-015 -1.21259e-014
lhumerus -31.3587 2.03282 81.2827
lradius 29.1746
lwrist -3.7793
lhand -21.1057 -12.418
lfingers 7.12502
lthumb 5.27228 17.4964
rfemur -22.3139 3.67578 15.4421
rtibia 5.19658
rfoot -16.9615 -8.44439
rtoes -10.4981
lfemur -40.9218 -12.3244 -22.0664
ltibia 35.7545
lfoot -14.6337 2.14859
ltoes -28.4356
